<svg xmlns="http://www.w3.org/2000/svg" viewBox="0 0 128 128">
  <!-- Туловище цыпленка -->
  <circle cx="64" cy="75" r="28" fill="#FFD700"/>
  
  <!-- Голова цыпленка -->
  <circle cx="64" cy="40" r="22" fill="#FFD700"/>
  
  <!-- Левый глаз -->
  <circle cx="58" cy="35" r="5" fill="#000"/>
  <circle cx="59" cy="33" r="2" fill="#FFF"/>
  
  <!-- Правый глаз -->
  <circle cx="70" cy="35" r="5" fill="#000"/>
  <circle cx="71" cy="33" r="2" fill="#FFF"/>
  
  <!-- Клюв -->
  <path d="M 65 42 L 78 44 L 65 46 Z" fill="#FF8C00"/>
  
  <!-- Левое крыло -->
  <ellipse cx="45" cy="75" rx="12" ry="20" fill="#FFC700"/>
  
  <!-- Правое крыло -->
  <ellipse cx="83" cy="75" rx="12" ry="20" fill="#FFC700"/>
  
  <!-- Левая лапка -->
  <g>
    <line x1="55" y1="102" x2="55" y2="115" stroke="#FF8C00" stroke-width="2"/>
    <line x1="51" y1="115" x2="59" y2="115" stroke="#FF8C00" stroke-width="2"/>
    <line x1="50" y1="115" x2="48" y2="120" stroke="#FF8C00" stroke-width="2"/>
    <line x1="55" y1="115" x2="55" y2="120" stroke="#FF8C00" stroke-width="2"/>
    <line x1="60" y1="115" x2="62" y2="120" stroke="#FF8C00" stroke-width="2"/>
  </g>
  
  <!-- Правая лапка -->
  <g>
    <line x1="73" y1="102" x2="73" y2="115" stroke="#FF8C00" stroke-width="2"/>
    <line x1="69" y1="115" x2="77" y2="115" stroke="#FF8C00" stroke-width="2"/>
    <line x1="68" y1="115" x2="66" y2="120" stroke="#FF8C00" stroke-width="2"/>
    <line x1="73" y1="115" x2="73" y2="120" stroke="#FF8C00" stroke-width="2"/>
    <line x1="78" y1="115" x2="80" y2="120" stroke="#FF8C00" stroke-width="2"/>
  </g>
  
  <!-- Хохолок -->
  <ellipse cx="64" cy="15" rx="8" ry="12" fill="#FFD700"/>
  <ellipse cx="60" cy="10" rx="6" ry="10" fill="#FFC700"/>
  <ellipse cx="68" cy="10" rx="6" ry="10" fill="#FFC700"/>
</svg>
